<svg xmlns="http://www.w3.org/2000/svg" viewBox="0 0 141.42 141.42"><defs><style>.cls-1,.cls-2{fill:#231f20;}.cls-2{stroke:#2794d2;stroke-miterlimit:10;stroke-width:0.25px;}</style></defs><g id="Layer_2" data-name="Layer 2"><g id="Layer_1-2" data-name="Layer 1"><rect class="cls-1" x="20.71" y="20.71" width="100" height="100" transform="translate(-29.29 70.71) rotate(-45)"/><path class="cls-2" d="M44.62,43.48l53.67-1.55a1.18,1.18,0,0,1,1.21,1.2L97.94,96.8a1.18,1.18,0,0,1-1.14,1.14L43.13,99.5a1.18,1.18,0,0,1-1.2-1.21l1.55-53.67A1.18,1.18,0,0,1,44.62,43.48Z"/><line class="cls-2" x1="43.51" y1="43.51" x2="35.36" y2="35.36"/><line class="cls-2" x1="99.53" y1="41.89" x2="106.07" y2="35.36"/><line class="cls-2" x1="97.91" y1="97.91" x2="106.07" y2="106.07"/><line class="cls-2" x1="41.89" y1="99.53" x2="35.36" y2="106.07"/></g></g></svg>